<?xml version="1.0" standalone="no"?>
<!DOCTYPE svg PUBLIC "-//W3C//DTD SVG 20010904//EN"
 "http://www.w3.org/TR/2001/REC-SVG-20010904/DTD/svg10.dtd">
<svg version="1.0" xmlns="http://www.w3.org/2000/svg"
 width="216.000000pt" height="300.000000pt" viewBox="0 0 216.000000 300.000000"
 preserveAspectRatio="xMidYMid meet">

<g transform="translate(0.000000,300.000000) scale(0.100000,-0.100000)"
fill="#2e00fdcc" stroke="none">
<path d="M1540 2984 c0 -5 18 -71 40 -147 60 -208 100 -433 100 -562 l0 -35
-118 0 c-65 0 -144 5 -174 10 l-56 11 -53 -56 c-54 -57 -79 -69 -79 -36 0 17
-47 61 -64 61 -3 0 3 -16 13 -36 18 -34 19 -64 1 -64 -4 0 -10 7 -14 15 -4 12
-10 13 -31 3 -19 -8 -31 -8 -50 0 -21 10 -27 9 -31 -3 -8 -20 -34 -19 -34 0 0
9 7 30 16 46 8 17 14 32 12 34 -9 10 -59 -42 -61 -62 -1 -13 -4 -23 -6 -23 -3
0 -33 27 -67 61 l-61 60 -64 -11 c-35 -6 -111 -10 -169 -8 l-105 3 -3 54 c-6
102 53 418 109 589 11 34 19 68 17 74 -7 19 -141 -329 -182 -469 -19 -66 -41
-155 -49 -196 l-14 -75 43 -43 43 -42 28 19 c24 16 51 19 184 22 l156 4 32
-38 c32 -40 40 -64 20 -64 -6 0 -38 12 -70 26 -71 32 -66 32 -352 -42 -120
-31 -221 -54 -224 -51 -8 8 15 267 33 372 32 190 85 366 152 503 19 40 33 74
30 77 -7 7 -115 -194 -162 -301 -68 -154 -114 -306 -142 -462 -14 -79 -29
-155 -35 -169 -5 -13 -9 -26 -9 -28 0 -2 29 -29 64 -60 l65 -56 93 45 c128 63
250 96 373 103 91 4 104 2 145 -19 25 -13 45 -27 44 -33 -1 -14 -65 -24 -158
-24 l-79 -1 -81 -78 c-166 -158 -417 -355 -476 -373 -28 -8 -43 -8 -59 0 -20
11 -21 10 -21 -51 1 -265 61 -564 164 -820 43 -107 128 -289 132 -285 2 2 -10
41 -27 88 -42 116 -104 362 -124 494 -9 61 -19 186 -22 278 l-6 168 109 108
c138 136 405 358 459 382 23 10 75 22 116 25 l74 7 -98 -84 c-53 -46 -112 -89
-130 -95 l-32 -12 1 -258 c3 -610 91 -1082 255 -1370 48 -83 73 -101 34 -24
-131 259 -192 720 -168 1285 9 211 9 242 -5 258 -13 15 -13 21 -1 44 36 67
188 207 206 189 3 -2 -7 -31 -22 -63 -33 -71 -33 -118 -5 -265 28 -145 74
-297 118 -388 27 -58 36 -70 39 -52 5 27 23 29 23 2 0 -101 113 211 160 441
26 124 26 202 1 243 -22 37 -35 86 -23 86 17 0 100 -69 146 -122 52 -59 65
-92 47 -120 -9 -14 -9 -77 0 -266 11 -252 3 -546 -21 -728 -27 -203 -84 -423
-137 -527 -13 -27 -22 -51 -20 -54 10 -9 79 117 117 212 128 328 190 752 190
1303 l0 182 -24 0 c-25 0 -141 87 -200 149 l-30 31 30 0 c16 0 54 -4 85 -9 51
-9 69 -19 170 -101 217 -175 429 -364 444 -396 12 -27 13 -60 5 -225 -15 -311
-64 -536 -185 -844 -6 -14 -5 -17 3 -10 5 6 34 62 62 125 163 361 228 612 245
948 5 90 4 132 -3 132 -6 0 -14 -4 -17 -10 -15 -24 -59 -5 -161 66 -144 100
-227 168 -350 287 l-102 97 -103 3 c-57 1 -112 7 -123 13 -17 10 -16 13 15 35
28 20 49 25 116 28 129 5 275 -33 440 -116 l72 -36 65 58 c36 31 66 59 66 62
0 2 -5 13 -11 24 -5 11 -19 72 -30 135 -43 256 -137 517 -259 719 -28 47 -53
85 -55 85 -2 0 13 -37 34 -82 69 -149 124 -331 156 -513 18 -98 32 -365 21
-365 -15 0 -380 92 -419 106 -58 21 -106 17 -152 -11 -22 -13 -50 -25 -63 -25
l-23 0 23 41 c12 22 32 46 42 51 29 16 305 4 342 -14 27 -13 32 -12 72 16 23
17 45 39 48 51 11 44 -125 480 -208 670 -40 91 -48 106 -48 89z"/>
</g>
</svg>
